<svg height="512pt" viewBox="0 0 512.00103 512" width="512pt" xmlns="http://www.w3.org/2000/svg"><path d="m256 512c-68.378906 0-132.667969-26.628906-181.019531-74.980469-48.351563-48.351562-74.980469-112.636719-74.980469-181.019531 0-68.378906 26.628906-132.667969 74.980469-181.019531 48.351562-48.351563 112.640625-74.980469 181.019531-74.980469s132.667969 26.628906 181.019531 74.980469c48.351563 48.351562 74.980469 112.640625 74.980469 181.019531 0 68.382812-26.628906 132.667969-74.980469 181.019531-48.351562 48.351563-112.640625 74.980469-181.019531 74.980469zm0 0" fill="#fc5356"/><path d="m256 442.867188c-103.039062 0-186.867188-83.828126-186.867188-186.867188s83.828126-186.867188 186.867188-186.867188 186.867188 83.828126 186.867188 186.867188-83.828126 186.867188-186.867188 186.867188zm0 0" fill="#fff"/><path d="m256.007812 0v512c68.375 0 132.660157-26.628906 181.011719-74.980469 48.351563-48.351562 74.980469-112.640625 74.980469-181.019531 0-68.382812-26.628906-132.667969-74.980469-181.019531-48.351562-48.351563-112.636719-74.97656275-181.011719-74.980469zm0 0" fill="#f70b57"/><path d="m256.007812 69.132812v373.734376c103.035157-.003907 186.859376-83.828126 186.859376-186.867188 0-103.035156-83.824219-186.863281-186.859376-186.867188zm0 0" fill="#c8fdfa"/><path d="m338.765625 316.984375-67.367187-67.363281v-97.316406c0-8.503907-6.894532-15.402344-15.398438-15.402344-8.507812 0-15.402344 6.898437-15.402344 15.402344v103.695312c0 3.941406 1.503906 7.882812 4.511719 10.890625l71.875 71.875c3.003906 3.007813 6.949219 4.511719 10.886719 4.511719 3.941406 0 7.882812-1.503906 10.890625-4.511719 6.015625-6.015625 6.015625-15.765625.003906-21.78125zm0 0" fill="#45686e"/><path d="m271.398438 249.621094v-97.316406c0-8.503907-6.890626-15.398438-15.390626-15.402344v140.882812l60.976563 60.980469c3.007813 3.007813 6.949219 4.511719 10.890625 4.511719 3.9375 0 7.882812-1.503906 10.886719-4.511719 6.015625-6.015625 6.015625-15.765625 0-21.78125zm0 0" fill="#2a3b3b"/></svg>