<svg id="Layer_1" data-name="Layer 1" xmlns="http://www.w3.org/2000/svg" viewBox="0 0 200 200"><title>Artboard 5</title><path d="M171.75,25.21Q144.39,0,103.73,0,61,0,31,28.68T.88,100.08q0,41,28.6,70.42T106.67,200a144.52,144.52,0,0,0,57.41-12,12.24,12.24,0,0,0,6.61-15.79h0a12.2,12.2,0,0,0-16.16-6.6q-24.48,10.52-47.9,10.52-37.22,0-57.65-22.68a77,77,0,0,1-20.4-53.21q0-33.17,21.87-55.36t53.65-22.2q29.31,0,49.53,18.24t20.2,45.9q0,18.91-9.26,31.5c-6.17,8.4-12.57,12.56-19.22,12.56-3.59,0-5.39-1.91-5.39-5.79a107.45,107.45,0,0,1,.7-11.06l7.59-62H122.13L120.46,58q-10-8.15-21.87-8.16-18.84,0-32.27,15c-9,10-13.42,22.89-13.42,38.64q0,23.07,11.91,37.25t28.68,14.16q15,0,25.62-12.57,8,12.06,23.63,12,22.95,0,39.65-20t16.73-48.18Q199.12,50.47,171.75,25.21Zm-60.14,93.88c-4.61,6.21-10.12,9.35-16.53,9.35q-6.54,0-10.52-6.86c-2.7-4.57-4-10.24-4-17q0-12.61,5.63-20.32c3.75-5.14,8.4-7.75,13.95-7.75q7.23,0,12.85,5.79c3.76,3.88,5.63,9,5.63,15.47A35.29,35.29,0,0,1,111.61,119.09Z"/></svg>