<svg height="512pt" viewBox="0 0 512.00043 512" width="512pt" xmlns="http://www.w3.org/2000/svg"><path d="m409.808594 249.113281c-5.941406-3.023437-12.941406-1.710937-17.414063 2.761719l-132.292969-132.300781c4.472657-4.46875 5.789063-11.472657 2.761719-17.410157-3.761719-7.382812-12.792969-10.316406-20.171875-6.558593l-155.894531 79.433593c-24.867187 12.667969-47.789063 44.179688-52.1875 71.730469l-33.90625 212.359375c-2.511719 15.710938 1.765625 30.4375 11.730469 40.402344 8.097656 8.101562 19.335937 12.441406 31.695312 12.441406 2.851563 0 5.765625-.230468 8.714844-.699218l212.355469-33.90625c27.558593-4.398438 59.070312-27.324219 71.738281-52.1875l79.425781-155.890626c3.761719-7.382812.828125-16.414062-6.554687-20.175781zm0 0" fill="#ffd400"/><path d="m409.808594 249.113281c-5.941406-3.023437-12.941406-1.710937-17.414063 2.761719l-66.144531-66.148438-313.808594 313.808594c8.097656 8.097656 19.332032 12.4375 31.6875 12.4375 2.851563 0 5.769532-.230468 8.714844-.699218l212.359375-33.90625c27.554687-4.398438 59.066406-27.324219 71.738281-52.1875l79.421875-155.890626c3.761719-7.382812.828125-16.414062-6.554687-20.175781zm0 0" fill="#ff9f04"/><path d="m495.292969 166.335938-149.652344-149.652344c-10.761719-10.757813-25.109375-16.683594-40.40625-16.683594-15.289063 0-29.636719 5.925781-40.398437 16.683594l-24.019532 24.019531c-10.757812 10.761719-16.683594 25.109375-16.683594 40.402344s5.925782 29.640625 16.683594 40.398437l149.65625 149.652344c10.757813 10.761719 25.105469 16.683594 40.398438 16.683594 15.292968 0 29.640625-5.921875 40.398437-16.683594l24.023438-24.019531c22.277343-22.277344 22.277343-58.523438 0-80.800781zm0 0" fill="#0065a3"/><path d="m267.269531 244.699219c-10.417969-10.421875-24.269531-16.15625-39.003906-16.15625s-28.589844 5.734375-39.007813 16.15625c-10.421874 10.417969-16.160156 24.269531-16.160156 39.007812 0 9.589844 2.445313 18.800781 7.015625 26.9375l-167.675781 167.675781c-5.855469 5.859376-5.855469 15.355469 0 21.214844 2.929688 2.929688 6.765625 4.394532 10.605469 4.394532 3.839843 0 7.679687-1.464844 10.605469-4.394532l167.675781-167.679687c8.140625 4.570312 17.351562 7.015625 26.941406 7.015625 14.730469 0 28.585937-5.738282 39.003906-16.15625 10.421875-10.417969 16.160157-24.269532 16.160157-39.007813s-5.738282-28.589843-16.160157-39.007812zm0 0" fill="#253f66"/><path d="m495.292969 166.335938-74.828125-74.824219-104.820313 104.820312 74.828125 74.828125c10.757813 10.757813 25.105469 16.683594 40.398438 16.683594 15.292968 0 29.640625-5.925781 40.398437-16.683594l24.023438-24.023437c22.277343-22.277344 22.277343-58.523438 0-80.800781zm0 0" fill="#005183"/><path d="m23.042969 503.925781c3.839843 0 7.679687-1.464843 10.605469-4.394531l167.675781-167.675781c8.140625 4.570312 17.351562 7.015625 26.941406 7.015625 14.730469 0 28.585937-5.738282 39.003906-16.15625 10.421875-10.421875 16.160157-24.273438 16.160157-39.011719 0-14.734375-5.738282-28.585937-16.15625-39.003906l-254.832032 254.835937c2.925782 2.929688 6.765625 4.390625 10.601563 4.390625zm0 0" fill="#13233c"/></svg>