<?xml version="1.0" encoding="utf-8"?>
<!-- Generator: Adobe Illustrator 23.1.0, SVG Export Plug-In . SVG Version: 6.00 Build 0)  -->
<svg version="1.1" id="Layer_1" xmlns="http://www.w3.org/2000/svg" xmlns:xlink="http://www.w3.org/1999/xlink" x="0px" y="0px"
	 viewBox="0 0 30 30" style="enable-background:new 0 0 30 30;" xml:space="preserve">
<style type="text/css">
	.st0{fill:#FFFFFF;}
</style>
<title>Artboard 1</title>
<path class="st0" d="M21.7,0H8.3C3.7,0,0,3.7,0,8.3c0,0,0,0,0,0v13.4C0,26.3,3.7,30,8.3,30l0,0h13.4c4.6,0,8.3-3.7,8.3-8.3v0V8.3
	C30,3.7,26.3,0,21.7,0C21.7,0,21.7,0,21.7,0z M27.3,21.7c0,3.1-2.5,5.6-5.6,5.6l0,0H8.3c-3.1,0-5.6-2.5-5.6-5.6V8.3
	c0-3.1,2.5-5.6,5.6-5.6h13.4c3.1,0,5.6,2.5,5.6,5.6l0,0V21.7z"/>
<path class="st0" d="M15,7.3c-4.3,0-7.7,3.5-7.7,7.7s3.5,7.7,7.7,7.7s7.7-3.5,7.7-7.7l0,0C22.7,10.7,19.3,7.3,15,7.3z M15,20.1
	c-2.8,0-5.1-2.3-5.1-5.1s2.3-5.1,5.1-5.1s5.1,2.3,5.1,5.1v0C20.1,17.8,17.8,20.1,15,20.1z"/>
<path class="st0" d="M23,5c-1.1,0.2-1.8,1.3-1.5,2.4c0.2,0.8,0.8,1.4,1.5,1.5c1.1-0.1,2-1,1.9-2.1c0-0.5-0.2-0.9-0.5-1.2
	C24.1,5.2,23.6,5,23,5z"/>
</svg>
