<svg id="Layer_1" data-name="Layer 1" xmlns="http://www.w3.org/2000/svg" xmlns:xlink="http://www.w3.org/1999/xlink" viewBox="0 0 200 200"><defs><style>.cls-1{fill:url(#linear-gradient);}.cls-2{fill:url(#linear-gradient-3);}</style><linearGradient id="linear-gradient" x1="100" y1="-154.58" x2="100" y2="-352.45" gradientTransform="translate(0 354)" gradientUnits="userSpaceOnUse"><stop offset="0" stop-color="#e09b3d"/><stop offset="0.3" stop-color="#c74c4d"/><stop offset="0.6" stop-color="#c21975"/><stop offset="1" stop-color="#7024c4"/></linearGradient><linearGradient id="linear-gradient-3" x1="151.83" y1="-154.58" x2="151.83" y2="-352.45" xlink:href="#linear-gradient"/></defs><title>Artboard 2</title><path class="cls-1" d="M140.42,0H59.58A59.65,59.65,0,0,0,0,59.58v80.84A59.65,59.65,0,0,0,59.58,200h80.84A59.65,59.65,0,0,0,200,140.42V59.58A59.65,59.65,0,0,0,140.42,0Zm39.46,140.42a39.46,39.46,0,0,1-39.46,39.46H59.58a39.46,39.46,0,0,1-39.46-39.46V59.58A39.46,39.46,0,0,1,59.58,20.12h80.84a39.46,39.46,0,0,1,39.46,39.46v80.84Z"/><path class="cls-1" d="M100,48.27A51.73,51.73,0,1,0,151.73,100,51.79,51.79,0,0,0,100,48.27Zm0,83.34A31.61,31.61,0,1,1,131.61,100,31.61,31.61,0,0,1,100,131.61Z"/><circle class="cls-2" cx="151.83" cy="48.66" r="12.39"/></svg>