<svg height="512pt" viewBox="-68 0 512 512" width="512pt" xmlns="http://www.w3.org/2000/svg"><path d="m272.417969 411.417969h-168.164063c-8.492187 0-15.378906-6.886719-15.378906-15.378907v-1.078124c0-26.167969-11.167969-51.851563-30.640625-70.464844-18.5625-17.738282-33.074219-38.648438-43.132813-62.15625-10.421874-24.375-15.496093-50.289063-15.0781245-77.03125 1.6093745-102.644532 85.8828125-185.308594 188.3359375-185.308594.757813 0 1.511719.00390625 2.265625.0117188 49.824219.5937502 96.570312 20.4492192 131.628906 55.9062502 35.082032 35.484375 54.40625 82.515625 54.40625 132.421875 0 26.308594-5.324218 51.769531-15.828125 75.671875-10.144531 23.085937-24.605469 43.617187-42.980469 61.023437-19.097656 18.113282-30.054687 43.601563-30.054687 69.914063v1.089843c0 8.492188-6.886719 15.378907-15.378906 15.378907zm0 0" fill="#ffe795"/><path d="m190.625.0117188c-.753906-.00781255-1.507812-.0117188-2.265625-.0117188-.007813 0-.019531 0-.03125 0v411.417969h84.089844c8.492187 0 15.378906-6.886719 15.378906-15.378907v-1.089843c0-26.316407 10.957031-51.800781 30.058594-69.914063 18.375-17.410156 32.832031-37.9375 42.976562-61.023437 10.503907-23.902344 15.828125-49.363281 15.828125-75.671875 0-49.910156-19.324218-96.9375-54.40625-132.421875-35.058594-35.457031-81.804687-55.3125-131.628906-55.9062502zm0 0" fill="#ffd330"/><path d="m215.164062 512h-53.65625c-40.050781 0-72.632812-32.582031-72.632812-72.632812v-43.328126h198.921875v43.328126c0 40.050781-32.582031 72.632812-72.632813 72.632812zm0 0" fill="#45686e"/><path d="m188.328125 512h26.835937c40.050782 0 72.632813-32.582031 72.632813-72.632812v-43.328126h-99.46875zm0 0" fill="#2a3b3b"/><path d="m188.332031 183.714844c-10.261719 0-18.605469-9.777344-18.605469-21.796875s8.34375-21.800781 18.605469-21.800781h33.984375c8.492188 0 15.378906-6.882813 15.378906-15.378907 0-8.492187-6.886718-15.378906-15.378906-15.378906h-18.605468v-16.609375c0-8.492188-6.886719-15.378906-15.378907-15.378906-8.496093 0-15.378906 6.886718-15.378906 15.378906v19.234375c-19.710937 6.898437-33.984375 26.667969-33.984375 49.933594 0 28.980469 22.144531 52.554687 49.363281 52.554687 10.257813 0 18.605469 9.78125 18.605469 21.800782 0 12.019531-8.347656 21.796874-18.605469 21.796874h-33.984375c-8.496094 0-15.378906 6.886719-15.378906 15.382813 0 8.492187 6.882812 15.378906 15.378906 15.378906h18.605469v16.609375c0 8.492188 6.882813 15.378906 15.378906 15.378906 8.492188 0 15.378907-6.886718 15.378907-15.378906v-19.234375c19.710937-6.902343 33.984374-26.671875 33.984374-49.933593 0-28.980469-22.144531-52.558594-49.363281-52.558594zm0 0" fill="#fc5356"/><g fill="#f70b57"><path d="m188.332031 258.070312h-.003906v62.75h.003906c8.492188 0 15.378907-6.886718 15.378907-15.378906v-19.234375c19.710937-6.902343 33.984374-26.671875 33.984374-49.933593 0-28.980469-22.144531-52.558594-49.363281-52.558594h-.003906v30.757812h.003906c10.257813 0 18.605469 9.78125 18.605469 21.800782 0 12.019531-8.347656 21.796874-18.605469 21.796874zm0 0"/><path d="m222.316406 109.359375h-18.605468v-16.609375c0-8.492188-6.886719-15.378906-15.378907-15.378906-.003906 0-.003906 0-.003906 0v62.746094h.003906 33.984375c8.492188 0 15.378906-6.882813 15.378906-15.378907 0-8.492187-6.886718-15.378906-15.378906-15.378906zm0 0"/></g></svg>