<svg id="Layer_1" data-name="Layer 1" xmlns="http://www.w3.org/2000/svg" viewBox="0 0 200 200"><defs><style>.cls-1{fill:#424a60;}.cls-2{fill:#e7eced;}.cls-3{fill:#262b35;}.cls-4{fill:#3083c9;}.cls-5{fill:#88c057;}.cls-6{fill:#dc691d;}.cls-7{fill:#ebba16;}.cls-8{fill:#7383bf;}.cls-9{fill:#dd352e;}.cls-10{fill:#a485be;}.cls-11{fill:#ea6248;}.cls-12{fill:#25ae88;}</style></defs><title>Artboard 1</title><path class="cls-1" d="M143.43,200H56.57a11.74,11.74,0,0,1-11.74-11.74V11.74A11.74,11.74,0,0,1,56.57,0h86.86a11.74,11.74,0,0,1,11.74,11.74V188.26A11.74,11.74,0,0,1,143.43,200Z"/><rect class="cls-2" x="44.83" y="20.69" width="110.34" height="137.93"/><circle class="cls-3" cx="100" cy="179.31" r="10.34"/><path class="cls-3" d="M100,13.79H86.21a3.45,3.45,0,1,1,0-6.89H100a3.45,3.45,0,1,1,0,6.89Z"/><path class="cls-3" d="M113.79,13.79h-3.45a3.45,3.45,0,0,1,0-6.89h3.45a3.45,3.45,0,1,1,0,6.89Z"/><path class="cls-4" d="M106.77,58.69H93.23a3.58,3.58,0,0,1-3.57-3.58V41.58A3.57,3.57,0,0,1,93.23,38h13.54a3.57,3.57,0,0,1,3.57,3.58V55.11A3.58,3.58,0,0,1,106.77,58.69Z"/><path class="cls-5" d="M75.73,58.69H62.2a3.58,3.58,0,0,1-3.58-3.58V41.58A3.58,3.58,0,0,1,62.2,38H75.73a3.58,3.58,0,0,1,3.58,3.58V55.11A3.58,3.58,0,0,1,75.73,58.69Z"/><path class="cls-6" d="M137.8,58.69H124.27a3.58,3.58,0,0,1-3.58-3.58V41.58A3.58,3.58,0,0,1,124.27,38H137.8a3.58,3.58,0,0,1,3.58,3.58V55.11A3.58,3.58,0,0,1,137.8,58.69Z"/><path class="cls-7" d="M106.77,89.66H93.23a3.58,3.58,0,0,1-3.57-3.58V72.54A3.57,3.57,0,0,1,93.23,69h13.54a3.57,3.57,0,0,1,3.57,3.57V86.08A3.58,3.58,0,0,1,106.77,89.66Z"/><path class="cls-8" d="M75.73,89.66H62.2a3.58,3.58,0,0,1-3.58-3.58V72.54A3.57,3.57,0,0,1,62.2,69H75.73a3.57,3.57,0,0,1,3.58,3.57V86.08A3.58,3.58,0,0,1,75.73,89.66Z"/><path class="cls-9" d="M137.8,89.66H124.27a3.58,3.58,0,0,1-3.58-3.58V72.54A3.57,3.57,0,0,1,124.27,69H137.8a3.57,3.57,0,0,1,3.58,3.57V86.08A3.58,3.58,0,0,1,137.8,89.66Z"/><path class="cls-10" d="M106.77,120.69H93.23a3.57,3.57,0,0,1-3.57-3.58V103.58A3.57,3.57,0,0,1,93.23,100h13.54a3.57,3.57,0,0,1,3.57,3.58v13.53A3.57,3.57,0,0,1,106.77,120.69Z"/><path class="cls-11" d="M75.73,120.69H62.2a3.58,3.58,0,0,1-3.58-3.58V103.58A3.58,3.58,0,0,1,62.2,100H75.73a3.58,3.58,0,0,1,3.58,3.58v13.53A3.58,3.58,0,0,1,75.73,120.69Z"/><path class="cls-12" d="M137.8,120.69H124.27a3.58,3.58,0,0,1-3.58-3.58V103.58a3.58,3.58,0,0,1,3.58-3.58H137.8a3.58,3.58,0,0,1,3.58,3.58v13.53A3.58,3.58,0,0,1,137.8,120.69Z"/></svg>