<?xml version="1.0" encoding="utf-8"?>
<!-- Generator: Adobe Illustrator 23.1.0, SVG Export Plug-In . SVG Version: 6.00 Build 0)  -->
<svg version="1.1" id="Layer_1" xmlns="http://www.w3.org/2000/svg" xmlns:xlink="http://www.w3.org/1999/xlink" x="0px" y="0px"
	 viewBox="0 0 30 30" style="enable-background:new 0 0 30 30;" xml:space="preserve">
<style type="text/css">
	.st0{fill:#FFFFFF;}
</style>
<title>Artboard 1</title>
<g id="_Group_">
	<path id="_Compound_Path_" class="st0" d="M0.5,14.5L7.4,17l2.7,8.6c0.1,0.4,0.6,0.7,1,0.5c0.1,0,0.2-0.1,0.3-0.1l3.9-3.1
		c0.4-0.3,1-0.3,1.4,0l6.9,5c0.4,0.3,0.9,0.2,1.1-0.2c0.1-0.1,0.1-0.2,0.1-0.3L30,2.9c0.1-0.4-0.2-0.9-0.6-1c-0.2,0-0.3,0-0.5,0
		L0.5,12.9c-0.4,0.2-0.6,0.6-0.5,1C0.1,14.2,0.3,14.4,0.5,14.5z M9.7,15.7l13.5-8.3c0.1-0.1,0.2-0.1,0.3,0s0.1,0.2,0,0.3l0,0
		L12.3,18.1c-0.4,0.4-0.6,0.9-0.7,1.4l-0.4,2.8c0,0.2-0.2,0.3-0.4,0.3c-0.1,0-0.3-0.1-0.3-0.3l-1.5-5.1C8.9,16.6,9.2,16,9.7,15.7z"
		/>
</g>
</svg>
