<svg id="Layer_1" data-name="Layer 1" xmlns="http://www.w3.org/2000/svg" viewBox="0 0 200 200"><defs><style>.cls-1{fill:#7aa5da;}.cls-2{fill:#5786b5;}.cls-3{fill:#fff;}.cls-4{fill:#9ec2e5;}.cls-5{fill:#d1d1d1;}.cls-6{fill:#dadde0;}.cls-7{fill:#adbcc9;}</style></defs><title>Artboard 4</title><circle class="cls-1" cx="100" cy="100" r="100"/><path class="cls-2" d="M200,97.69,155.58,53.37,83.27,141.51l52.07,52.06A100,100,0,0,0,200,100Q200,98.85,200,97.69Z"/><path class="cls-3" d="M149.89,52.16a5.38,5.38,0,0,1,7.23,6.12l-17.88,85.46a5.63,5.63,0,0,1-8.84,3.39l-27-19.82L89.65,141.36A4.57,4.57,0,0,1,82,139.54L72.11,108,45.5,100.17A3.82,3.82,0,0,1,45.19,93Zm-13.13,19a1.27,1.27,0,0,0-1.5-2L77.83,104.71a2.6,2.6,0,0,0-1.12,3l7.83,34.4a.5.5,0,0,0,1-.1l1.75-26.21a2.64,2.64,0,0,1,.86-1.67Z"/><path class="cls-4" d="M135.26,69.09a1.27,1.27,0,0,1,1.51,2l-48.64,43a2.64,2.64,0,0,0-.86,1.67L85.52,142a.5.5,0,0,1-1,.1l-7.83-34.4a2.6,2.6,0,0,1,1.12-3Z"/><path class="cls-3" d="M84.83,142.45a4.49,4.49,0,0,1-2.8-2.91L72.11,108,45.5,100.17A3.82,3.82,0,0,1,45.19,93l104.7-40.79a5.36,5.36,0,0,1,6.5,2.12,5.49,5.49,0,0,0-.85-1l-71,58v2.54l-.39-.28.39,16v12.82a1.75,1.75,0,0,0,.32.12Z"/><path class="cls-5" d="M157.24,56.84a6,6,0,0,1-.12,1.44l-17.88,85.46a5.63,5.63,0,0,1-8.84,3.39l-27-19.82-18.9-13.52v-2.54l71-58a5.49,5.49,0,0,1,.85,1l.15.23.12.24.12.24.11.26c0,.07.06.15.08.24a5.34,5.34,0,0,1,.21.81Z"/><path class="cls-5" d="M103.41,127.31,89.65,141.36a3.61,3.61,0,0,1-.35.33l-.37.28h0a5.55,5.55,0,0,1-.79.43,4.13,4.13,0,0,1-.42.14,4.5,4.5,0,0,1-1.78.16,3.65,3.65,0,0,1-.46-.07h-.06l-.44-.13a.34.34,0,0,1-.14-.05l-.32-12.94V113.79Z"/><path class="cls-6" d="M89.3,141.69a4.5,4.5,0,0,1-.37.28h0Z"/><path class="cls-6" d="M88.93,142Z"/><path class="cls-6" d="M88.13,142.4a5.55,5.55,0,0,0,.79-.43A6.15,6.15,0,0,1,88.13,142.4Z"/><path class="cls-6" d="M85.93,142.7a4.69,4.69,0,0,0,1.78-.16,4.46,4.46,0,0,1-1.3.2,2.6,2.6,0,0,1-.4,0A.08.08,0,0,1,85.93,142.7Z"/><path class="cls-3" d="M86.41,142.74a2.6,2.6,0,0,1-.4,0A2.6,2.6,0,0,0,86.41,142.74Z"/><path class="cls-3" d="M85.93,142.7H86a1.75,1.75,0,0,1-.4-.05Z"/><path class="cls-6" d="M85.93,142.7l-.32,0a.58.58,0,0,1-.14,0A3.4,3.4,0,0,0,85.93,142.7Z"/><path class="cls-6" d="M85,142.49l.44.13-.18,0s0,0-.07,0A.6.6,0,0,1,85,142.49Z"/><path class="cls-3" d="M85.23,142.58l.18,0Z"/><path class="cls-3" d="M85,142.49a.7.7,0,0,0,.19.06,1.58,1.58,0,0,1-.31-.09Z"/><path class="cls-6" d="M85,142.49l-.12,0s0,0,0,0h0A.34.34,0,0,0,85,142.49Z"/><path class="cls-5" d="M84.51,129.5l.32,12.94a3,3,0,0,1-.32-.12Z"/><polygon class="cls-6" points="84.51 113.79 84.51 129.5 84.12 113.51 84.51 113.79"/><path class="cls-7" d="M136.76,71.12l-48.63,43a2.64,2.64,0,0,0-.86,1.67L85.52,142a.5.5,0,0,1-1,.1l-7.83-34.39a2.61,2.61,0,0,1,1.12-3l57.43-35.62A1.27,1.27,0,0,1,136.76,71.12Z"/></svg>