<svg id="Layer_1" data-name="Layer 1" xmlns="http://www.w3.org/2000/svg" viewBox="0 0 200 200"><defs><style>.cls-1{fill:#76a9ea;}</style></defs><title>Artboard 3</title><path class="cls-1" d="M196.87,39a78.46,78.46,0,0,1-13.59,4.59,42.41,42.41,0,0,0,11.18-17.82h0a2.22,2.22,0,0,0-3.25-2.58h0a78.56,78.56,0,0,1-20.77,8.58,5.2,5.2,0,0,1-1.3.16,5.5,5.5,0,0,1-3.64-1.39,42.5,42.5,0,0,0-28.12-10.61A45.44,45.44,0,0,0,123.92,22,41.18,41.18,0,0,0,96.18,51.63a45.39,45.39,0,0,0-1,15.64,1.54,1.54,0,0,1-.38,1.2,1.6,1.6,0,0,1-1.17.53h-.15A111.4,111.4,0,0,1,16.89,28.08h0a2.22,2.22,0,0,0-3.64.28h0A42.52,42.52,0,0,0,20.16,80a38,38,0,0,1-9.69-3.75h0a2.23,2.23,0,0,0-3.3,1.92h0A42.53,42.53,0,0,0,32,117.37h-.91a38.49,38.49,0,0,1-7.16-.68h0a2.22,2.22,0,0,0-2.53,2.86h0a42.59,42.59,0,0,0,33.63,29,78.39,78.39,0,0,1-43.91,13.33H6.2A3.27,3.27,0,0,0,3,164.31,3.36,3.36,0,0,0,4.63,168a116.57,116.57,0,0,0,58.6,15.8,118.23,118.23,0,0,0,50.08-10.62A110.49,110.49,0,0,0,150,145.75a120.48,120.48,0,0,0,22.44-37.58A118.64,118.64,0,0,0,180,67.05V66.4a7.25,7.25,0,0,1,2.71-5.63,83.92,83.92,0,0,0,16.89-18.54h0A2.22,2.22,0,0,0,196.87,39Z"/></svg>